<?xml version="1.0" encoding="utf-8"?>
<?xml-stylesheet type="text/xsl" href="rss1.xsl"?>
<rss version="2.0" xmlns:atom="http://www.w3.org/2005/Atom" xmlns:content="http://purl.org/rss/1.0/modules/content/" xmlns:dc="http://purl.org/dc/elements/1.1/" xmlns:media="http://search.yahoo.com/mrss/">
<channel>
 <title>Getty</title>
 <link>http://www.gettyimg.com/</link>
 <atom:link href="http://www.gettyimg.com/" rel="self" type="application/rss+xml" />

 
                <item>
                <title><![CDATA[【Apple Music】WEB-RiP - Justin Bieber - Yummy [Apple HD Music Video]]]></title>
                <link><![CDATA[https://sharemania.us/threads/justin-bieber-yummy-apple-hd-music-video.241950/]]></link>
                <description><![CDATA[<article>
<blockquote class="messageText SelectQuoteContainer ugc baseHtml">
<span style="font-size: 22px"><b>Justin Bieber - Yummy [Apple HD Music Video]</b></span><br>
<br>
<img src="https://imgur.com/eg3gIJ3.jpg" class="bbCodeImage LbImage" alt="[​IMG]" data-url="https://imgur.com/eg3gIJ3.jpg" style=""><br>
<br>
<div class="bbCodeBlock bbCodeCode">
<div class="type">Code:</div>
<pre>General
Format                         : MPEG-4
Codec ID                       : M4V  (isom/M4V /mp42)
File size                      : 279 MiB
Duration                       : 3 min 50 s
Overall bit rate mode          : Variable
Overall bit rate               : 10.1 Mb/s
Movie name                     : Yummy
Performer                      : Justin Bieber
Genre                          : Pop
ContentType                    : Music Video
Recorded date                  : UTC 2020-01-04 08:00:00
Encoded date                   : UTC 2024-03-15 11:22:11
Tagged date                    : UTC 2024-03-15 11:22:11
Copyright                      : ℗ 2020 Def Jam Recordings, a division of UMG Recordings, Inc.
Cover                          : Yes
Rating                         : None
GenreID                        : 1614
AppleStoreCountry              : Canada
AlbumTitleID                   : 320569549
AppleStoreCatalogID            : 1493550886

Video
ID                             : 2
Format                         : AVC
Format/Info                    : Advanced Video Codec
Format profile                 : High@L4
Format settings                : CABAC / 4 Ref Frames
Format settings, CABAC         : Yes
Format settings, Reference fra : 4 frames
Codec ID                       : avc1
Codec ID/Info                  : Advanced Video Coding
Duration                       : 3 min 50 s
Source duration                : 3 min 50 s
Bit rate                       : 9 865 kb/s
Maximum bit rate               : 17.9 Mb/s
Width                          : 1 912 pixels
Height                         : 1 072 pixels
Display aspect ratio           : 16:9
Frame rate mode                : Variable
Frame rate                     : 23.976 FPS
Minimum frame rate             : 23.976 FPS
Maximum frame rate             : 24.218 FPS
Color space                    : YUV
Chroma subsampling             : 4:2:0
Bit depth                      : 8 bits
Scan type                      : Progressive
Bits/(Pixel*Frame)             : 0.201
Stream size                    : 271 MiB (97%)
Source stream size             : 271 MiB (97%)
Title                          : Core Media Video
Language                       : English
Encoded date                   : UTC 2024-02-23 22:23:22
Tagged date                    : UTC 2024-03-15 11:22:59
Color range                    : Limited
Color primaries                : BT.709
Transfer characteristics       : BT.709
Matrix coefficients            : BT.709
mdhd_Duration                  : 230689
Codec configuration box        : avcC

Audio
ID                             : 1
Format                         : AAC LC
Format/Info                    : Advanced Audio Codec Low Complexity
Codec ID                       : mp4a-40-2
Duration                       : 3 min 50 s
Duration_LastFrame             : -8 ms
Bit rate mode                  : Variable
Bit rate                       : 249 kb/s
Maximum bit rate               : 357 kb/s
Channel(s)                     : 2 channels
Channel layout                 : L R
Sampling rate                  : 48.0 kHz
Frame rate                     : 46.875 FPS (1024 SPF)
Compression mode               : Lossy
Stream size                    : 6.85 MiB (2%)
Title                          : Core Media Audio
Encoded date                   : UTC 2024-02-23 22:23:07
Tagged date                    : UTC 2024-03-15 11:22:59

Text
ID                             : 3-CC1
Format                         : EIA-608
Muxing mode                    : Final Cut
Codec ID                       : c608
Duration                       : 3 min 42 s
Duration of the visible conten : 3 min 39 s
Start time                     : 1 s 196 ms
End time                       : 3 min 40 s
End time (commands)            : 3 min 40 s
Bit rate mode                  : Constant
Maximum bit rate               : 1 168 b/s
Frame rate                     : 0.518 FPS
Stream size                    : 0.00 Byte (0%)
Title                          : Core Media Closed Caption
Language                       : English
Forced                         : No
Encoded date                   : UTC 2024-02-23 22:23:22
Tagged date                    : UTC 2024-03-15 11:22:59
Count of events                : 96
Count of PopOn events          : 96
Count of lines                 : 118
Maximum count of lines per eve : 2
Count of frames before first e : 0
Type of the first event        : PopOn</pre>
</div>
<div class="bbCodeBlock bbCodeVfcHH HiddenContent">
<div class="attribution type">Hidden Content:</div>
<blockquote>You must reply before you can see the hidden data contained here.</blockquote>
</div>
<div class="messageTextEndMarker">&nbsp;</div>
</blockquote>
</article>]]></description>
                <author><![CDATA[abby0511]]></author>
                </item>

                
                <item>
                <title><![CDATA[【Singles (lossless)】FLAC - Dua Lipa - Illusion -- 24bits 44.1kHz (Qobuz)]]></title>
                <link><![CDATA[https://sharemania.us/threads/dua-lipa-illusion-24bits-44-1khz-qobuz.241949/]]></link>
                <description><![CDATA[<article>
<blockquote class="messageText SelectQuoteContainer ugc baseHtml">
<img src="https://i.imgur.com/uWSwVc2.jpeg" class="bbCodeImage LbImage" alt="[​IMG]" data-url="https://i.imgur.com/uWSwVc2.jpeg" style=""><br>
<br>
<div class="ToggleTriggerAnchor bbCodeSpoilerContainer">
<button type="button" class="button bbCodeSpoilerButton ToggleTrigger Tooltip JsOnly" data-target="> .SpoilerTarget"><span>Spoiler: <span class="SpoilerTitle">MediaInfo</span></span></button>
<div class="SpoilerTarget bbCodeSpoilerText">General<br>
Complete name : C:\Users\alexp\Music\Qobuz\FLAC (24bit-44.1kHz)\Dua Lipa - Illusion.flac<br>
Format : FLAC<br>
Format/Info : Free Lossless Audio Codec<br>
File size : 37.0 MiB<br>
Duration : 3 min 8 s<br>
Overall bit rate mode : Variable<br>
Overall bit rate : 1 649 kb/s<br>
Album : Illusion<br>
Album/Performer : Dua Lipa<br>
Part : 1<br>
Part/Total : 1<br>
Track name : Illusion<br>
Track name/Position : 1<br>
Track name/Total : 1<br>
Performer : Dua Lipa<br>
Composer : Dua Lipa<br>
Producer : Urban<br>
Label : Urban<br>
Genre : Pop<br>
Recorded date : 2024-04-12<br>
ISRC : GBAHT2400114<br>
Copyright : ℗ 2024 Dua Lipa Limited, under exclusive license to Universal Music GmbH<br>
Cover : Yes<br>
Cover type : Cover (front)<br>
Cover MIME : image/jpeg<br>
INVOLVEDPEOPLE : Dua Lipa, MainArtist, ComposerLyricist<br>
UPC : 0602465621198<br>
MEDIATYPE : single<br>
ITUNESADVISORY : 0<br>
URL : <a href="https://www.qobuz.com/fr-fr/album/illusion-dua-lipa/p8l496w1irubc" target="_blank" class="externalLink" rel="nofollow">https://www.qobuz.com/fr-fr/album/illusion-dua-lipa/p8l496w1irubc</a><br>
<br>
Audio<br>
Format : FLAC<br>
Format/Info : Free Lossless Audio Codec<br>
Duration : 3 min 8 s<br>
Bit rate mode : Variable<br>
Bit rate : 1 647 kb/s<br>
Channel(s) : 2 channels<br>
Channel layout : L R<br>
Sampling rate : 44.1 kHz<br>
Bit depth : 24 bits<br>
Compression mode : Lossless<br>
Stream size : 36.9 MiB (100%)<br>
MD5 of the unencoded conten : 00000000000000000000000000000000</div>
</div><br>
<div style="text-align: center"><b>Download Server 1<br>
<div class="bbCodeBlock bbCodeVfcHH HiddenContent">
<div class="attribution type">Hidden Content:</div>
<blockquote>You must reply before you can see the hidden data contained here.</blockquote>
</div>Download Server 2<br>
<div class="bbCodeBlock bbCodeVfcHH HiddenContent">
<div class="attribution type">Hidden Content:</div>
<blockquote>You must reply before you can see the hidden data contained here.</blockquote>
</div></b>​</div>
<div class="messageTextEndMarker">&nbsp;</div>
</blockquote>
</article>]]></description>
                <author><![CDATA[narxerino]]></author>
                </item>

                </channel></rss>